<svg width="72" height="74" viewBox="0 0 72 74" fill="none" xmlns="http://www.w3.org/2000/svg">
<path d="M38.5 2.2843C29.6906 2.2843 21.2421 5.7838 15.013 12.0129C8.7838 18.2421 5.2843 26.6906 5.2843 35.5C5.2843 44.3093 8.7838 52.7579 15.0129 58.987C21.2421 65.2162 29.6906 68.7157 38.5 68.7157V62.0725C31.4525 62.0725 24.6937 59.2729 19.7104 54.2896C14.727 49.3063 11.9274 42.5475 11.9274 35.5C11.9274 28.4525 14.727 21.6937 19.7104 16.7104C24.6937 11.727 31.4525 8.92744 38.5 8.92744V2.2843Z" fill="current"/>
<circle cx="38.5" cy="35.5" r="6.03922" fill="current"/>
<path d="M44.5392 35.5C44.5392 34.7069 44.383 33.9216 44.0795 33.1889C43.776 32.4562 43.3312 31.7904 42.7704 31.2296C42.2096 30.6688 41.5438 30.224 40.8111 29.9205C40.0784 29.617 39.2931 29.4608 38.5 29.4608L38.5 35.5H44.5392Z" fill="white"/>
<rect x="38.5" y="74" width="3.77451" height="9.05882" transform="rotate(-180 38.5 74)" fill="current"/>
<rect x="22.5189" y="70.7292" width="7.54902" height="9.30709" transform="rotate(-150 22.5189 70.7292)" fill="current"/>
<rect x="15.9811" y="4.04526" width="7.54902" height="9.01949" transform="rotate(-30 15.9811 4.04526)" fill="current"/>
<rect x="3.27075" y="19.5188" width="7.54902" height="9.01949" transform="rotate(-60 3.27075 19.5188)" fill="current"/>
<rect x="7.04529" y="58.0188" width="7.54902" height="9.19025" transform="rotate(-120 7.04529 58.0188)" fill="current"/>
<rect y="39.2745" width="7.54902" height="9.81372" transform="rotate(-90 0 39.2745)" fill="current"/>
<path fill-rule="evenodd" clip-rule="evenodd" d="M65 35.5C65 32.02 64.3146 28.574 62.9828 25.3589C61.6511 22.1438 59.6991 19.2224 57.2383 16.7617C54.7776 14.3009 51.8562 12.3489 48.6411 11.0172C45.426 9.68544 41.98 9 38.5 9V35.5H45L45 34.5686L46.357 34.5686C46.4494 33.7604 46.6613 32.9743 46.9823 32.2351L45.8071 31.5566L46.7384 29.9434L47.9136 30.6219C48.1528 30.2989 48.4169 29.9921 48.7045 29.7045C48.9921 29.4169 49.2989 29.1528 49.6219 28.9136L48.9434 27.7384L50.5566 26.807L51.2351 27.9823C51.9743 27.6612 52.7604 27.4494 53.5686 27.357V26H55.4314V27.357C56.2396 27.4494 57.0257 27.6612 57.7649 27.9823L58.4434 26.8071L60.0566 27.7384L59.3781 28.9136C59.7011 29.1528 60.0079 29.4169 60.2955 29.7045C60.5831 29.9921 60.8472 30.2989 61.0864 30.6219L62.2615 29.9434L63.1929 31.5566L62.0177 32.2351C62.3388 32.9743 62.5506 33.7604 62.643 34.5686H64V35.5H65ZM47.2353 35.5L47.9431 35.5C47.9431 33.761 48.634 32.0932 49.8636 30.8636C51.0933 29.6339 52.761 28.9431 54.5 28.9431C56.239 28.9431 57.9068 29.6339 59.1364 30.8636C60.3661 32.0932 61.0569 33.761 61.0569 35.5L61.7647 35.5H55.9902C55.9902 34.677 55.323 34.0098 54.5 34.0098C53.677 34.0098 53.0098 34.677 53.0098 35.5H47.2353Z" fill="current"/>
<path d="M46.304 35.5C46.304 37.6737 47.1675 39.7584 48.7045 41.2955C50.2416 42.8326 52.3263 43.6961 54.5 43.6961C56.6738 43.6961 58.7585 42.8326 60.2955 41.2955C61.8326 39.7584 62.6961 37.6737 62.6961 35.5L61.0569 35.5C61.0569 37.239 60.3661 38.9067 59.1364 40.1364C57.9068 41.366 56.239 42.0569 54.5 42.0569C52.761 42.0569 51.0933 41.366 49.8636 40.1364C48.634 38.9067 47.9432 37.239 47.9432 35.5L46.304 35.5Z" fill="current"/>
<circle cx="54.5" cy="35.5" r="1.4902" transform="rotate(-90 54.5 35.5)" fill="current"/>
<rect x="64" y="35.5" width="0.931373" height="2.23529" transform="rotate(90 64 35.5)" fill="current"/>
<rect x="63.1929" y="39.4434" width="1.86275" height="2.29655" transform="rotate(120 63.1929 39.4434)" fill="current"/>
<rect x="46.7385" y="41.0566" width="1.86275" height="2.22559" transform="rotate(-120 46.7385 41.0566)" fill="current"/>
<rect x="50.5566" y="44.193" width="1.86275" height="2.22559" transform="rotate(-150 50.5566 44.193)" fill="current"/>
<rect x="60.0566" y="43.2616" width="1.86275" height="2.26772" transform="rotate(150 60.0566 43.2616)" fill="current"/>
<rect x="55.4314" y="45" width="1.86275" height="2.42157" transform="rotate(-180 55.4314 45)" fill="current"/>
<rect x="47.2353" y="35.5" width="0.931373" height="2.23529" transform="rotate(90 47.2353 35.5)" fill="current"/>
</svg>
