<svg width="140" height="85" viewBox="0 0 140 85" fill="none" xmlns="http://www.w3.org/2000/svg">
<path d="M59.5 63.5H56V59.5H49V74H45.5V56.5H49V59L51.5 56.5H56C56.9667 56.5 57.7833 56.85 58.45 57.55C59.15 58.2167 59.5 59.0333 59.5 60V63.5ZM81.7324 74H78.2324V71.45L75.2324 74H67.7324C66.7658 74 65.9324 73.6667 65.2324 73C64.5658 72.3 64.2324 71.4667 64.2324 70.5V67C64.2324 66.0333 64.5658 65.2167 65.2324 64.55C65.9324 63.85 66.7658 63.5 67.7324 63.5H77.7324L74.7324 66.45H67.7324V71H78.2324V59.5H64.2324L67.2324 56.5H78.2324C79.1991 56.5 80.0158 56.85 80.6824 57.55C81.3824 58.2167 81.7324 59.0333 81.7324 60V74ZM104.213 46L101.163 49H92.7129V58.5L94.7629 56.5H103.713L100.663 59.5H92.7129V74H89.2129V49.5C89.2129 48.5333 89.5462 47.7167 90.2129 47.05C90.9129 46.35 91.7462 46 92.7129 46H104.213ZM110.975 74H107.475V48.5L110.975 45V74ZM135.998 81C135.998 81.9667 135.648 82.7833 134.948 83.45C134.281 84.15 133.465 84.5 132.498 84.5H117.998L120.998 81.5H132.498V71.5L129.998 74H121.998C121.031 74 120.198 73.6667 119.498 73C118.831 72.3 118.498 71.4667 118.498 70.5V56.5H121.998V71H132.498V56.5H135.998V81Z" fill="current"/>
<path d="M38.5 2.2843C29.6906 2.2843 21.2421 5.7838 15.013 12.013C8.7838 18.2421 5.2843 26.6906 5.2843 35.5C5.2843 44.3093 8.7838 52.7579 15.0129 58.987C21.2421 65.2162 29.6906 68.7157 38.5 68.7157L38.5 62.0725C31.4525 62.0725 24.6937 59.2729 19.7104 54.2896C14.727 49.3063 11.9274 42.5475 11.9274 35.5C11.9274 28.4525 14.727 21.6937 19.7104 16.7104C24.6937 11.727 31.4525 8.92744 38.5 8.92744L38.5 2.2843Z" fill="current"/>
<circle cx="38.5" cy="35.5" r="6.03922" fill="current"/>
<path d="M44.5392 35.5C44.5392 34.7069 44.383 33.9216 44.0795 33.1889C43.776 32.4562 43.3312 31.7904 42.7704 31.2296C42.2096 30.6688 41.5438 30.224 40.8111 29.9205C40.0784 29.617 39.2931 29.4608 38.5 29.4608L38.5 35.5H44.5392Z" fill="white"/>
<rect x="38.5" y="74" width="3.77451" height="9.05882" transform="rotate(-180 38.5 74)" fill="current"/>
<rect x="22.5189" y="70.7292" width="7.54902" height="9.30709" transform="rotate(-150 22.5189 70.7292)" fill="current"/>
<rect x="15.9811" y="4.04526" width="7.54902" height="9.01949" transform="rotate(-30 15.9811 4.04526)" fill="current"/>
<rect x="3.27075" y="19.5188" width="7.54902" height="9.01949" transform="rotate(-60 3.27075 19.5188)" fill="current"/>
<rect x="7.04529" y="58.0188" width="7.54902" height="9.19025" transform="rotate(-120 7.04529 58.0188)" fill="current"/>
<rect x="136" y="32" width="3" height="69" transform="rotate(90 136 32)" fill="current"/>
<rect y="39.2745" width="7.54902" height="9.81372" transform="rotate(-90 0 39.2745)" fill="current"/>
<path fill-rule="evenodd" clip-rule="evenodd" d="M65 35.5C65 32.02 64.3146 28.574 62.9828 25.3589C61.6511 22.1438 59.6991 19.2224 57.2383 16.7617C54.7776 14.3009 51.8562 12.3489 48.6411 11.0172C45.426 9.68544 41.98 9 38.5 9V35.5H45L45 34.5686L46.357 34.5686C46.4494 33.7604 46.6613 32.9743 46.9823 32.2351L45.8071 31.5566L46.7384 29.9434L47.9136 30.6219C48.1528 30.2989 48.4169 29.9921 48.7045 29.7045C48.9921 29.4169 49.2989 29.1528 49.6219 28.9136L48.9434 27.7384L50.5566 26.807L51.2351 27.9823C51.9743 27.6612 52.7604 27.4494 53.5686 27.357V26H55.4314V27.357C56.2396 27.4494 57.0257 27.6612 57.7649 27.9823L58.4434 26.8071L60.0566 27.7384L59.3781 28.9136C59.7011 29.1528 60.0079 29.4169 60.2955 29.7045C60.5831 29.9921 60.8472 30.2989 61.0864 30.6219L62.2615 29.9434L63.1929 31.5566L62.0177 32.2351C62.3388 32.9743 62.5506 33.7604 62.643 34.5686H64V35.5H65ZM47.2353 35.5L47.9431 35.5C47.9431 33.761 48.634 32.0932 49.8636 30.8636C51.0933 29.6339 52.761 28.9431 54.5 28.9431C56.239 28.9431 57.9068 29.6339 59.1364 30.8636C60.3661 32.0932 61.0569 33.761 61.0569 35.5L61.7647 35.5H55.9902C55.9902 34.677 55.323 34.0098 54.5 34.0098C53.677 34.0098 53.0098 34.677 53.0098 35.5H47.2353Z" fill="current"/>
<path d="M46.3039 35.5C46.3039 37.6737 47.1674 39.7584 48.7045 41.2955C50.2415 42.8326 52.3262 43.6961 54.5 43.6961C56.6737 43.6961 58.7584 42.8326 60.2955 41.2955C61.8325 39.7584 62.6961 37.6737 62.6961 35.5L61.0568 35.5C61.0568 37.239 60.366 38.9067 59.1364 40.1364C57.9067 41.366 56.239 42.0569 54.5 42.0569C52.761 42.0569 51.0932 41.366 49.8636 40.1364C48.6339 38.9067 47.9431 37.239 47.9431 35.5L46.3039 35.5Z" fill="current"/>
<circle cx="54.5" cy="35.5" r="1.4902" transform="rotate(-90 54.5 35.5)" fill="current"/>
<rect x="64" y="35.5" width="0.931373" height="2.23529" transform="rotate(90 64 35.5)" fill="current"/>
<rect x="63.1929" y="39.4434" width="1.86275" height="2.29655" transform="rotate(120 63.1929 39.4434)" fill="current"/>
<rect x="46.7385" y="41.0566" width="1.86275" height="2.22559" transform="rotate(-120 46.7385 41.0566)" fill="current"/>
<rect x="50.5566" y="44.193" width="1.86275" height="2.22559" transform="rotate(-150 50.5566 44.193)" fill="current"/>
<rect x="60.0566" y="43.2616" width="1.86275" height="2.26772" transform="rotate(150 60.0566 43.2616)" fill="current"/>
<rect x="55.4314" y="45" width="1.86275" height="2.42157" transform="rotate(-180 55.4314 45)" fill="current"/>
<rect x="47.2353" y="35.5" width="0.931373" height="2.23529" transform="rotate(90 47.2353 35.5)" fill="current"/>
<path d="M94.05 29.3C94.05 29.4933 93.98 29.66 93.84 29.8C93.7067 29.9333 93.5433 30 93.35 30H90.55C90.3567 30 90.19 29.9333 90.05 29.8C89.9167 29.66 89.85 29.4933 89.85 29.3V25.8C89.85 25.6067 89.9167 25.4433 90.05 25.31C90.19 25.17 90.3567 25.1 90.55 25.1H93.35C93.5433 25.1 93.7067 25.17 93.84 25.31C93.98 25.4433 94.05 25.6067 94.05 25.8V26.5H93.25V25.8H90.65V29.3H93.25V28.6H94.05V29.3ZM98.1543 27.9H97.4543V27.1H96.0543V30H95.3543V26.5H96.0543V27L96.5543 26.5H97.4543C97.6476 26.5 97.811 26.57 97.9443 26.71C98.0843 26.8433 98.1543 27.0067 98.1543 27.2V27.9ZM102.601 30H101.901V29.49L101.301 30H99.8008C99.6074 30 99.4408 29.9333 99.3008 29.8C99.1674 29.66 99.1008 29.4933 99.1008 29.3V28.6C99.1008 28.4067 99.1674 28.2433 99.3008 28.11C99.4408 27.97 99.6074 27.9 99.8008 27.9H101.801L101.201 28.49H99.8008V29.4H101.901V27.1H99.1008L99.7008 26.5H101.901C102.094 26.5 102.257 26.57 102.391 26.71C102.531 26.8433 102.601 27.0067 102.601 27.2V30ZM107.097 24.4L106.487 25H104.797V26.9L105.207 26.5H106.997L106.387 27.1H104.797V30H104.097V25.1C104.097 24.9067 104.164 24.7433 104.297 24.61C104.437 24.47 104.604 24.4 104.797 24.4H107.097ZM109.949 30H108.549C108.356 30 108.189 29.9333 108.049 29.8C107.916 29.66 107.849 29.4933 107.849 29.3V27.1H106.849L107.449 26.5H107.849V25.8L108.549 25.1V26.5H109.949V27.1H108.549V29.4H109.949V30ZM116.452 30H115.752V29.5L115.252 30H113.652C113.459 30 113.292 29.9333 113.152 29.8C113.019 29.66 112.952 29.4933 112.952 29.3V27.2C112.952 27.0067 113.019 26.8433 113.152 26.71C113.292 26.57 113.459 26.5 113.652 26.5H115.752V24.9L116.452 24.2V30ZM115.752 29.4V26.6L115.252 27.1H113.652V29.4H115.752ZM120.752 27.9H120.052V27.1H118.652V30H117.952V26.5H118.652V27L119.152 26.5H120.052C120.245 26.5 120.409 26.57 120.542 26.71C120.682 26.8433 120.752 27.0067 120.752 27.2V27.9ZM125.348 29.3C125.348 29.4933 125.278 29.66 125.138 29.8C125.005 29.9333 124.842 30 124.648 30H122.548C122.355 30 122.188 29.9333 122.048 29.8C121.915 29.66 121.848 29.4933 121.848 29.3V27.2C121.848 27.0067 121.915 26.8433 122.048 26.71C122.188 26.57 122.355 26.5 122.548 26.5H124.648C124.842 26.5 125.005 26.57 125.138 26.71C125.278 26.8433 125.348 27.0067 125.348 27.2V29.3ZM124.648 29.4V27.1H122.548V29.4H124.648ZM130.251 30H129.551V27.1H127.451V30H126.751V26.5H127.451V27L127.951 26.5H129.551C129.744 26.5 129.907 26.57 130.041 26.71C130.181 26.8433 130.251 27.0067 130.251 27.2V30ZM135.153 30H132.353C132.16 30 131.993 29.9333 131.853 29.8C131.72 29.66 131.653 29.4933 131.653 29.3V27.2C131.653 27.0067 131.72 26.8433 131.853 26.71C131.993 26.57 132.16 26.5 132.353 26.5H134.453C134.646 26.5 134.81 26.57 134.943 26.71C135.083 26.8433 135.153 27.0067 135.153 27.2V27.9L134.453 28.6H132.453L133.053 28H134.453V27.1H132.353V29.4H135.153V30Z" fill="current"/>
<path d="M136 6.5L124.75 10.3971L124.75 2.60289L136 6.5Z" fill="current"/>
</svg>
